<svg width="40" height="40" viewBox="0 0 40 40" fill="none" xmlns="http://www.w3.org/2000/svg">
<rect x="0.5" y="0.5" width="39" height="39" rx="19.5" fill="white"/>
<path d="M10 11.6333C10 11.4654 10.0667 11.3043 10.1855 11.1855C10.3043 11.0667 10.4654 11 10.6334 11H12.5334C12.6747 11 12.8119 11.0473 12.9232 11.1343C13.0345 11.2213 13.1136 11.343 13.1478 11.4801L13.6608 13.5333H28.3672C28.4602 13.5334 28.5521 13.554 28.6362 13.5936C28.7204 13.6331 28.7948 13.6908 28.8541 13.7624C28.9135 13.8339 28.9564 13.9177 28.9797 14.0077C29.0031 14.0977 29.0063 14.1918 28.9892 14.2832L27.0891 24.4165C27.062 24.5617 26.9849 24.6927 26.8714 24.7871C26.7578 24.8815 26.6148 24.9332 26.4672 24.9333H15.0668C14.9192 24.9332 14.7762 24.8815 14.6626 24.7871C14.5491 24.6927 14.472 24.5617 14.4449 24.4165L12.5461 14.3022L12.0394 12.2667H10.6334C10.4654 12.2667 10.3043 12.1999 10.1855 12.0812C10.0667 11.9624 10 11.8013 10 11.6333ZM13.9293 14.8L15.5925 23.6667H25.9415L27.6047 14.8H13.9293ZM16.3335 24.9333C15.6616 24.9333 15.0172 25.2002 14.5421 25.6753C14.067 26.1504 13.8001 26.7948 13.8001 27.4667C13.8001 28.1385 14.067 28.7829 14.5421 29.258C15.0172 29.7331 15.6616 30 16.3335 30C17.0054 30 17.6498 29.7331 18.1249 29.258C18.6 28.7829 18.8669 28.1385 18.8669 27.4667C18.8669 26.7948 18.6 26.1504 18.1249 25.6753C17.6498 25.2002 17.0054 24.9333 16.3335 24.9333ZM25.2005 24.9333C24.5286 24.9333 23.8842 25.2002 23.4091 25.6753C22.934 26.1504 22.6671 26.7948 22.6671 27.4667C22.6671 28.1385 22.934 28.7829 23.4091 29.258C23.8842 29.7331 24.5286 30 25.2005 30C25.8724 30 26.5168 29.7331 26.9919 29.258C27.467 28.7829 27.7339 28.1385 27.7339 27.4667C27.7339 26.7948 27.467 26.1504 26.9919 25.6753C26.5168 25.2002 25.8724 24.9333 25.2005 24.9333ZM16.3335 26.2C16.6695 26.2 16.9917 26.3335 17.2292 26.571C17.4668 26.8085 17.6002 27.1307 17.6002 27.4667C17.6002 27.8026 17.4668 28.1248 17.2292 28.3623C16.9917 28.5999 16.6695 28.7333 16.3335 28.7333C15.9976 28.7333 15.6754 28.5999 15.4378 28.3623C15.2003 28.1248 15.0668 27.8026 15.0668 27.4667C15.0668 27.1307 15.2003 26.8085 15.4378 26.571C15.6754 26.3335 15.9976 26.2 16.3335 26.2ZM25.2005 26.2C25.5364 26.2 25.8586 26.3335 26.0962 26.571C26.3337 26.8085 26.4672 27.1307 26.4672 27.4667C26.4672 27.8026 26.3337 28.1248 26.0962 28.3623C25.8586 28.5999 25.5364 28.7333 25.2005 28.7333C24.8645 28.7333 24.5423 28.5999 24.3048 28.3623C24.0672 28.1248 23.9338 27.8026 23.9338 27.4667C23.9338 27.1307 24.0672 26.8085 24.3048 26.571C24.5423 26.3335 24.8645 26.2 25.2005 26.2Z" fill="#252B42"/>
<rect x="0.5" y="0.5" width="39" height="39" rx="19.5" stroke="#E8E8E8"/>
</svg>
