<svg width="24" height="45" viewBox="0 0 24 45" fill="none" xmlns="http://www.w3.org/2000/svg">
<path fill-rule="evenodd" clip-rule="evenodd" d="M23.4992 44.3018C23.3409 44.4596 23.1528 44.5848 22.9457 44.6703C22.7386 44.7557 22.5166 44.7997 22.2924 44.7997C22.0682 44.7997 21.8462 44.7557 21.6391 44.6703C21.432 44.5848 21.2439 44.4596 21.0856 44.3018L0.631046 23.9646C0.472307 23.8072 0.346367 23.6202 0.260435 23.4143C0.174505 23.2084 0.130272 22.9876 0.130272 22.7647C0.130272 22.5418 0.174505 22.3211 0.260435 22.1152C0.346367 21.9093 0.472307 21.7223 0.631046 21.5648L21.0856 1.22768C21.4057 0.909446 21.8398 0.730667 22.2924 0.730667C22.7451 0.730667 23.1792 0.909447 23.4992 1.22768C23.8193 1.54591 23.9991 1.97752 23.9991 2.42757C23.9991 2.87762 23.8193 3.30923 23.4992 3.62746L4.24809 22.7647L23.4992 41.902C23.658 42.0594 23.7839 42.2464 23.8698 42.4523C23.9558 42.6582 24 42.879 24 43.1019C24 43.3248 23.9558 43.5455 23.8698 43.7514C23.7839 43.9573 23.658 44.1444 23.4992 44.3018Z" fill="white"/>
</svg>
