<svg width="40" height="40" viewBox="0 0 40 40" fill="none" xmlns="http://www.w3.org/2000/svg">
<rect x="0.5" y="0.5" width="39" height="39" rx="19.5" fill="white"/>
<path d="M20.0009 15.9532L18.6365 14.5566L18.6359 14.556C18.288 14.2018 17.873 13.9204 17.4152 13.7283C16.9573 13.5362 16.4658 13.4372 15.9692 13.4372C15.4727 13.4372 14.9811 13.5362 14.5233 13.7283C14.0654 13.9203 13.6505 14.2017 13.3026 14.5559C12.5886 15.2809 12.1885 16.2575 12.1885 17.275C12.1885 18.2926 12.5887 19.2693 13.3028 19.9943L13.3031 19.9946L19.7781 26.5508L20.0005 26.776L20.2228 26.5508L26.6978 19.9946L26.6981 19.9943C27.4122 19.2693 27.8125 18.2926 27.8125 17.275C27.8125 16.2575 27.4123 15.2809 26.6983 14.5559C26.3506 14.2015 25.9357 13.92 25.4778 13.7279C25.02 13.5359 24.5286 13.4372 24.0322 13.4375C24.0319 13.4375 24.0317 13.4375 24.0315 13.4375L24.0317 13.75M20.0009 15.9532L21.3578 14.5695L21.3586 14.5687L21.5817 14.7875M20.0009 15.9532L21.357 14.5704M20.0009 15.9532L21.357 14.5704M24.0317 13.75C23.5746 13.7493 23.122 13.8409 22.701 14.0192C22.2801 14.1974 21.8994 14.4587 21.5817 14.7875M24.0317 13.75C24.4868 13.7496 24.9373 13.8401 25.3569 14.0161C25.7766 14.1921 26.1569 14.4501 26.4755 14.775L24.0317 13.75ZM21.5817 14.7875L21.357 14.5704M21.5817 14.7875L21.357 14.5704M24.0316 12.8125L24.0315 12.8125C23.4516 12.812 22.8774 12.9273 22.3427 13.1516C21.8079 13.3759 21.3233 13.7047 20.9173 14.1188L20.9162 14.12L20.2224 14.82L20.0005 15.0439L19.7785 14.82L19.0848 14.12L19.0839 14.1191C18.6773 13.7058 18.1926 13.3774 17.6578 13.1533C17.123 12.9292 16.549 12.8138 15.9692 12.8138C15.3894 12.8138 14.8154 12.9292 14.2806 13.1533C13.7459 13.3774 13.2611 13.7057 12.8545 14.1191L24.0316 12.8125ZM24.0316 12.8125C24.6115 12.8127 25.1856 12.9283 25.7204 13.1526C26.2551 13.3769 26.7399 13.7054 27.1463 14.119C27.9752 14.9629 28.4397 16.0984 28.4397 17.2813C28.4397 18.4639 27.9754 19.5993 27.1467 20.4431C27.1466 20.4432 27.1464 20.4434 27.1463 20.4435L20.0005 27.6802M24.0316 12.8125L20.0005 27.6802M20.0005 27.6802L12.8547 20.4435C12.8545 20.4434 12.8544 20.4433 12.8543 20.4432C12.0256 19.5994 11.5613 18.464 11.5613 17.2813C11.5613 16.0985 12.0257 14.9629 12.8545 14.1191L20.0005 27.6802Z" fill="#BDBDBD" stroke="#252B42" stroke-width="0.625"/>
<rect x="0.5" y="0.5" width="39" height="39" rx="19.5" stroke="#E8E8E8"/>
</svg>
