<svg width="40" height="40" viewBox="0 0 40 40" fill="none" xmlns="http://www.w3.org/2000/svg">
<rect x="0.5" y="0.5" width="39" height="39" rx="19.5" fill="white"/>
<path d="M22.5 20C22.5 20.663 22.2366 21.2989 21.7678 21.7678C21.2989 22.2366 20.663 22.5 20 22.5C19.337 22.5 18.7011 22.2366 18.2322 21.7678C17.7634 21.2989 17.5 20.663 17.5 20C17.5 19.337 17.7634 18.7011 18.2322 18.2322C18.7011 17.7634 19.337 17.5 20 17.5C20.663 17.5 21.2989 17.7634 21.7678 18.2322C22.2366 18.7011 22.5 19.337 22.5 20Z" fill="black"/>
<path d="M12 20C12 20 15 14.5 20 14.5C25 14.5 28 20 28 20C28 20 25 25.5 20 25.5C15 25.5 12 20 12 20ZM20 23.5C20.9283 23.5 21.8185 23.1313 22.4749 22.4749C23.1313 21.8185 23.5 20.9283 23.5 20C23.5 19.0717 23.1313 18.1815 22.4749 17.5251C21.8185 16.8687 20.9283 16.5 20 16.5C19.0717 16.5 18.1815 16.8687 17.5251 17.5251C16.8687 18.1815 16.5 19.0717 16.5 20C16.5 20.9283 16.8687 21.8185 17.5251 22.4749C18.1815 23.1313 19.0717 23.5 20 23.5Z" fill="black"/>
<rect x="0.5" y="0.5" width="39" height="39" rx="19.5" stroke="#E8E8E8"/>
</svg>
