<svg width="20" height="20" viewBox="0 0 20 20" fill="none" xmlns="http://www.w3.org/2000/svg">
<path d="M19.1308 7.41927C19.0732 7.24946 18.967 7.10025 18.8256 6.99006C18.6841 6.87987 18.5134 6.81353 18.3347 6.79922L13.1055 6.38371L10.8427 1.3747C10.7706 1.21337 10.6534 1.07634 10.5052 0.980156C10.357 0.883971 10.1841 0.832739 10.0074 0.832642C9.83069 0.832545 9.65774 0.883587 9.50941 0.979609C9.36109 1.07563 9.24372 1.21253 9.17148 1.37378L6.90867 6.38371L1.67951 6.79922C1.50382 6.81314 1.33586 6.87738 1.19572 6.98425C1.05559 7.09113 0.949205 7.23612 0.88931 7.40187C0.829415 7.56762 0.818541 7.74712 0.857988 7.91889C0.897436 8.09066 0.985535 8.24743 1.11175 8.37044L4.97605 12.1375L3.60937 18.0555C3.56788 18.2347 3.58118 18.4221 3.64755 18.5936C3.71392 18.7651 3.8303 18.9127 3.98159 19.0172C4.13288 19.1217 4.31208 19.1783 4.49596 19.1797C4.67983 19.1811 4.85988 19.1272 5.01274 19.025L10.0071 15.6955L15.0014 19.025C15.1577 19.1288 15.3419 19.1822 15.5294 19.1781C15.7169 19.1739 15.8986 19.1125 16.0502 19.002C16.2017 18.8916 16.3158 18.7373 16.3771 18.5601C16.4383 18.3828 16.4438 18.1911 16.3929 18.0106L14.7152 12.1403L18.8758 8.39612C19.1482 8.15031 19.2482 7.7669 19.1308 7.41927Z" fill="#F3CD03"/>
</svg>
