<svg width="20" height="20" viewBox="0 0 20 20" fill="none" xmlns="http://www.w3.org/2000/svg">
<path d="M5.03166 12.1377L3.66498 18.0557C3.62266 18.2349 3.63536 18.4227 3.70143 18.5945C3.7675 18.7664 3.88387 18.9143 4.03533 19.0191C4.18679 19.1238 4.36631 19.1804 4.55043 19.1814C4.73456 19.1825 4.91474 19.1281 5.06743 19.0252L10.0618 15.6956L15.0561 19.0252C15.2123 19.1289 15.3966 19.1823 15.5841 19.1782C15.7716 19.1741 15.9533 19.1127 16.1049 19.0022C16.2564 18.8917 16.3705 18.7375 16.4317 18.5602C16.493 18.383 16.4985 18.1912 16.4476 18.0107L14.7699 12.1404L18.9305 8.39628C19.0638 8.27629 19.1589 8.11988 19.2042 7.94638C19.2495 7.77289 19.243 7.58992 19.1854 7.4201C19.1278 7.25029 19.0217 7.10107 18.8802 6.99091C18.7388 6.88075 18.5681 6.81448 18.3893 6.80029L13.1602 6.38386L10.8974 1.37485C10.8252 1.21356 10.7079 1.0766 10.5597 0.980493C10.4114 0.88439 10.2385 0.833252 10.0618 0.833252C9.88508 0.833252 9.71216 0.88439 9.56389 0.980493C9.41561 1.0766 9.29832 1.21356 9.22617 1.37485L6.96335 6.38386L1.7342 6.79937C1.55851 6.81329 1.39055 6.87753 1.25041 6.98441C1.11027 7.09128 1.00389 7.23627 0.943998 7.40202C0.884102 7.56777 0.873228 7.74727 0.912676 7.91904C0.952123 8.09081 1.04022 8.24758 1.16643 8.37059L5.03166 12.1377ZM7.64853 8.16972C7.81225 8.15682 7.96948 8.10012 8.10375 8.00555C8.23802 7.91098 8.34438 7.78203 8.41167 7.63222L10.0618 3.98071L11.7119 7.63222C11.7792 7.78203 11.8855 7.91098 12.0198 8.00555C12.1541 8.10012 12.3113 8.15682 12.475 8.16972L16.1183 8.45865L13.118 11.159C12.8575 11.3938 12.7539 11.7552 12.8492 12.0927L13.9985 16.1148L10.5718 13.83C10.4213 13.729 10.2443 13.6751 10.0631 13.6751C9.882 13.6751 9.70495 13.729 9.55454 13.83L5.97366 16.2175L6.93675 12.0478C6.97207 11.8944 6.96733 11.7346 6.92299 11.5836C6.87866 11.4326 6.79621 11.2955 6.6836 11.1856L3.89704 8.46874L7.64853 8.16972Z" fill="#F3CD03"/>
</svg>
