<svg width="22" height="18" viewBox="0 0 22 18" fill="none" xmlns="http://www.w3.org/2000/svg">
<path d="M6.91075 18C15.213 18 19.7546 11.0731 19.7546 5.07669C19.7546 4.88285 19.7546 4.68625 19.7464 4.49241C20.6306 3.84789 21.3937 3.04993 22 2.13592C21.1741 2.50262 20.2988 2.7443 19.4026 2.85312C20.3466 2.28495 21.0536 1.391 21.3923 0.337403C20.5054 0.86647 19.5346 1.23787 18.5226 1.43534C17.8423 0.705724 16.9419 0.222372 15.9611 0.0601592C14.9803 -0.102054 13.9737 0.0659244 13.0973 0.538075C12.2209 1.01023 11.5236 1.7602 11.1134 2.67182C10.7031 3.58345 10.6029 4.60585 10.8281 5.58066C9.03339 5.49005 7.27762 5.02057 5.67468 4.20269C4.07175 3.3848 2.65744 2.23678 1.5235 0.833069C0.947843 1.83421 0.772164 3.01843 1.03214 4.14526C1.29211 5.27209 1.96825 6.25705 2.92325 6.90013C2.20762 6.87565 1.50772 6.68215 0.88 6.33524V6.39754C0.881234 7.44631 1.24205 8.46247 1.90145 9.27429C2.56086 10.0861 3.4784 10.6438 4.499 10.853C4.11161 10.9605 3.71144 11.014 3.30963 11.0122C3.02635 11.0131 2.74365 10.9867 2.46537 10.9333C2.75383 11.8361 3.3155 12.6254 4.07171 13.1908C4.82793 13.7561 5.74081 14.0691 6.6825 14.0859C5.08276 15.3511 3.10668 16.0373 1.0725 16.034C0.714066 16.0355 0.355882 16.0147 0 15.9716C2.06458 17.297 4.46228 18.0008 6.91075 18Z" fill="#23A6F0"/>
</svg>
