<svg width="16" height="15" viewBox="0 0 16 15" fill="none" xmlns="http://www.w3.org/2000/svg">
<path d="M0.500488 0.5C0.500488 0.367392 0.553167 0.240215 0.646935 0.146447C0.740703 0.0526784 0.86788 0 1.00049 0H2.50049C2.61202 3.08115e-05 2.72034 0.0373507 2.80822 0.106025C2.8961 0.174699 2.9585 0.270784 2.98549 0.379L3.39049 2H15.0005C15.0739 2.00007 15.1464 2.0163 15.2128 2.04755C15.2793 2.0788 15.338 2.12429 15.3849 2.1808C15.4317 2.23731 15.4656 2.30345 15.484 2.37452C15.5024 2.44558 15.505 2.51984 15.4915 2.592L13.9915 10.592C13.97 10.7066 13.9092 10.8101 13.8196 10.8846C13.7299 10.9591 13.6171 10.9999 13.5005 11H4.50049C4.38392 10.9999 4.27105 10.9591 4.1814 10.8846C4.09174 10.8101 4.03094 10.7066 4.00949 10.592L2.51049 2.607L2.11049 1H1.00049C0.86788 1 0.740703 0.947322 0.646935 0.853553C0.553167 0.759785 0.500488 0.632608 0.500488 0.5ZM3.60249 3L4.91549 10H13.0855L14.3985 3H3.60249ZM5.50049 11C4.97006 11 4.46135 11.2107 4.08627 11.5858C3.7112 11.9609 3.50049 12.4696 3.50049 13C3.50049 13.5304 3.7112 14.0391 4.08627 14.4142C4.46135 14.7893 4.97006 15 5.50049 15C6.03092 15 6.53963 14.7893 6.9147 14.4142C7.28977 14.0391 7.50049 13.5304 7.50049 13C7.50049 12.4696 7.28977 11.9609 6.9147 11.5858C6.53963 11.2107 6.03092 11 5.50049 11ZM12.5005 11C11.9701 11 11.4613 11.2107 11.0863 11.5858C10.7112 11.9609 10.5005 12.4696 10.5005 13C10.5005 13.5304 10.7112 14.0391 11.0863 14.4142C11.4613 14.7893 11.9701 15 12.5005 15C13.0309 15 13.5396 14.7893 13.9147 14.4142C14.2898 14.0391 14.5005 13.5304 14.5005 13C14.5005 12.4696 14.2898 11.9609 13.9147 11.5858C13.5396 11.2107 13.0309 11 12.5005 11ZM5.50049 12C5.7657 12 6.02006 12.1054 6.20759 12.2929C6.39513 12.4804 6.50049 12.7348 6.50049 13C6.50049 13.2652 6.39513 13.5196 6.20759 13.7071C6.02006 13.8946 5.7657 14 5.50049 14C5.23527 14 4.98092 13.8946 4.79338 13.7071C4.60585 13.5196 4.50049 13.2652 4.50049 13C4.50049 12.7348 4.60585 12.4804 4.79338 12.2929C4.98092 12.1054 5.23527 12 5.50049 12ZM12.5005 12C12.7657 12 13.0201 12.1054 13.2076 12.2929C13.3951 12.4804 13.5005 12.7348 13.5005 13C13.5005 13.2652 13.3951 13.5196 13.2076 13.7071C13.0201 13.8946 12.7657 14 12.5005 14C12.2353 14 11.9809 13.8946 11.7934 13.7071C11.6058 13.5196 11.5005 13.2652 11.5005 13C11.5005 12.7348 11.6058 12.4804 11.7934 12.2929C11.9809 12.1054 12.2353 12 12.5005 12Z" fill="#23A6F0"/>
</svg>
