<svg width="16" height="16" viewBox="0 0 16 16" fill="none" xmlns="http://www.w3.org/2000/svg">
<path d="M3.65447 1.32805C3.59544 1.25211 3.52092 1.1896 3.43587 1.14468C3.35082 1.09975 3.25719 1.07343 3.16119 1.06747C3.06519 1.06151 2.96902 1.07605 2.87907 1.11012C2.78912 1.14418 2.70744 1.19699 2.63947 1.26505L1.60547 2.30005C1.12247 2.78405 0.944471 3.46905 1.15547 4.07005C2.03121 6.55764 3.45577 8.81615 5.32347 10.6781C7.1854 12.5457 9.4439 13.9703 11.9315 14.8461C12.5325 15.0571 13.2175 14.8791 13.7015 14.3961L14.7355 13.3621C14.8035 13.2941 14.8563 13.2124 14.8904 13.1225C14.9245 13.0325 14.939 12.9363 14.933 12.8403C14.9271 12.7443 14.9008 12.6507 14.8558 12.5656C14.8109 12.4806 14.7484 12.4061 14.6725 12.3471L12.3655 10.5531C12.2843 10.4901 12.19 10.4465 12.0895 10.4253C11.989 10.4042 11.8851 10.4061 11.7855 10.4311L9.59547 10.9781C9.30315 11.0511 8.99689 11.0472 8.70652 10.9668C8.41614 10.8864 8.15154 10.7321 7.93847 10.5191L5.48247 8.06205C5.26924 7.84909 5.1148 7.58453 5.03418 7.29415C4.95357 7.00377 4.94954 6.69746 5.02247 6.40505L5.57047 4.21505C5.59538 4.11545 5.59734 4.01149 5.57621 3.91101C5.55507 3.81054 5.51139 3.71618 5.44847 3.63505L3.65447 1.32805ZM1.88447 0.511051C2.05947 0.336 2.2697 0.200181 2.50121 0.112612C2.73272 0.0250429 2.98021 -0.0122724 3.22725 0.00314389C3.47429 0.0185602 3.71522 0.0863553 3.93405 0.202028C4.15288 0.3177 4.3446 0.478602 4.49647 0.674051L6.29047 2.98005C6.61947 3.40305 6.73547 3.95405 6.60547 4.47405L6.05847 6.66405C6.03019 6.77748 6.03172 6.8963 6.06291 7.00896C6.0941 7.12163 6.15388 7.22431 6.23647 7.30705L8.69347 9.76405C8.77631 9.8468 8.87916 9.90669 8.99202 9.93789C9.10488 9.96908 9.22389 9.97052 9.33747 9.94205L11.5265 9.39505C11.7831 9.33089 12.0509 9.32591 12.3098 9.38048C12.5686 9.43505 12.8116 9.54775 13.0205 9.71005L15.3265 11.5041C16.1555 12.149 16.2315 13.3741 15.4895 14.1151L14.4555 15.1491C13.7155 15.8891 12.6095 16.2141 11.5785 15.8511C8.93965 14.9226 6.54374 13.4119 4.56847 11.4311C2.58776 9.45607 1.07708 7.06051 0.148471 4.42205C-0.213529 3.39205 0.111471 2.28505 0.851471 1.54505L1.88547 0.511051H1.88447Z" fill="white"/>
</svg>
