<svg width="17" height="16" viewBox="0 0 17 16" fill="none" xmlns="http://www.w3.org/2000/svg">
<path d="M12.2427 10.344C13.2109 9.02267 13.6446 7.38447 13.457 5.75713C13.2693 4.12979 12.4741 2.63332 11.2304 1.56711C9.98677 0.500899 8.3864 -0.056418 6.74949 0.00665514C5.11258 0.0697283 3.55984 0.748541 2.40192 1.90729C1.24401 3.06603 0.566304 4.61926 0.504402 6.25621C0.442501 7.89317 1.00096 9.49314 2.06806 10.736C3.13516 11.9789 4.6322 12.773 6.25967 12.9596C7.88715 13.1461 9.52503 12.7112 10.8457 11.742H10.8447C10.8747 11.782 10.9067 11.82 10.9427 11.857L14.7927 15.707C14.9802 15.8946 15.2345 16.0001 15.4998 16.0002C15.7651 16.0003 16.0195 15.895 16.2072 15.7075C16.3948 15.52 16.5003 15.2656 16.5004 15.0003C16.5005 14.7351 16.3952 14.4806 16.2077 14.293L12.3577 10.443C12.3219 10.4068 12.2835 10.3734 12.2427 10.343V10.344ZM12.5007 6.49998C12.5007 7.22225 12.3584 7.93745 12.082 8.60474C11.8056 9.27203 11.4005 9.87834 10.8897 10.3891C10.379 10.8998 9.7727 11.3049 9.10541 11.5813C8.43812 11.8577 7.72292 12 7.00065 12C6.27838 12 5.56319 11.8577 4.8959 11.5813C4.2286 11.3049 3.62229 10.8998 3.11157 10.3891C2.60084 9.87834 2.19572 9.27203 1.91932 8.60474C1.64292 7.93745 1.50065 7.22225 1.50065 6.49998C1.50065 5.04129 2.08012 3.64234 3.11157 2.61089C4.14302 1.57944 5.54196 0.999979 7.00065 0.999979C8.45934 0.999979 9.85829 1.57944 10.8897 2.61089C11.9212 3.64234 12.5007 5.04129 12.5007 6.49998Z" fill="#23A6F0"/>
</svg>
