<svg width="16" height="16" viewBox="0 0 16 16" fill="none" xmlns="http://www.w3.org/2000/svg">
<path d="M8.00049 0.000244141C5.82949 0.000244141 5.55649 0.0102441 4.70349 0.0482441C3.85049 0.0882441 3.26949 0.222244 2.76049 0.420244C2.22658 0.621063 1.74298 0.93607 1.34349 1.34324C0.936564 1.74294 0.621596 2.22648 0.420488 2.76024C0.222488 3.26824 0.0874883 3.85024 0.0484883 4.70024C0.0104883 5.55524 0.000488281 5.82724 0.000488281 8.00124C0.000488281 10.1732 0.0104883 10.4452 0.0484883 11.2982C0.0884883 12.1502 0.222488 12.7312 0.420488 13.2402C0.625488 13.7662 0.898488 14.2122 1.34349 14.6572C1.78749 15.1022 2.23349 15.3762 2.75949 15.5802C3.26949 15.7782 3.84949 15.9132 4.70149 15.9522C5.55549 15.9902 5.82749 16.0002 8.00049 16.0002C10.1735 16.0002 10.4445 15.9902 11.2985 15.9522C12.1495 15.9122 12.7325 15.7782 13.2415 15.5802C13.7751 15.3793 14.2583 15.0643 14.6575 14.6572C15.1025 14.2122 15.3755 13.7662 15.5805 13.2402C15.7775 12.7312 15.9125 12.1502 15.9525 11.2982C15.9905 10.4452 16.0005 10.1732 16.0005 8.00024C16.0005 5.82724 15.9905 5.55524 15.9525 4.70124C15.9125 3.85024 15.7775 3.26824 15.5805 2.76024C15.3794 2.22647 15.0644 1.74292 14.6575 1.34324C14.2581 0.93592 13.7745 0.62089 13.2405 0.420244C12.7305 0.222244 12.1485 0.0872441 11.2975 0.0482441C10.4435 0.0102441 10.1725 0.000244141 7.99849 0.000244141H8.00149H8.00049ZM7.28349 1.44224H8.00149C10.1375 1.44224 10.3905 1.44924 11.2335 1.48824C12.0135 1.52324 12.4375 1.65424 12.7195 1.76324C13.0925 1.90824 13.3595 2.08224 13.6395 2.36224C13.9195 2.64224 14.0925 2.90824 14.2375 3.28224C14.3475 3.56324 14.4775 3.98724 14.5125 4.76724C14.5515 5.61024 14.5595 5.86324 14.5595 7.99824C14.5595 10.1332 14.5515 10.3872 14.5125 11.2302C14.4775 12.0102 14.3465 12.4332 14.2375 12.7152C14.1092 13.0626 13.9045 13.3767 13.6385 13.6342C13.3585 13.9142 13.0925 14.0872 12.7185 14.2322C12.4385 14.3422 12.0145 14.4722 11.2335 14.5082C10.3905 14.5462 10.1375 14.5552 8.00149 14.5552C5.86549 14.5552 5.61149 14.5462 4.76849 14.5082C3.98849 14.4722 3.56549 14.3422 3.28349 14.2322C2.93599 14.1042 2.62161 13.8998 2.36349 13.6342C2.09724 13.3763 1.89221 13.0619 1.76349 12.7142C1.65449 12.4332 1.52349 12.0092 1.48849 11.2292C1.45049 10.3862 1.44249 10.1332 1.44249 7.99624C1.44249 5.86024 1.45049 5.60824 1.48849 4.76524C1.52449 3.98524 1.65449 3.56124 1.76449 3.27924C1.90949 2.90624 2.08349 2.63924 2.36349 2.35924C2.64349 2.07924 2.90949 1.90624 3.28349 1.76124C3.56549 1.65124 3.98849 1.52124 4.76849 1.48524C5.50649 1.45124 5.79249 1.44124 7.28349 1.44024V1.44224ZM12.2715 2.77024C12.1454 2.77024 12.0206 2.79508 11.9041 2.84332C11.7876 2.89156 11.6818 2.96228 11.5927 3.05142C11.5035 3.14057 11.4328 3.2464 11.3846 3.36287C11.3363 3.47934 11.3115 3.60418 11.3115 3.73024C11.3115 3.85631 11.3363 3.98115 11.3846 4.09762C11.4328 4.21409 11.5035 4.31992 11.5927 4.40907C11.6818 4.49821 11.7876 4.56892 11.9041 4.61717C12.0206 4.66541 12.1454 4.69024 12.2715 4.69024C12.5261 4.69024 12.7703 4.5891 12.9503 4.40907C13.1303 4.22903 13.2315 3.98485 13.2315 3.73024C13.2315 3.47564 13.1303 3.23146 12.9503 3.05142C12.7703 2.87139 12.5261 2.77024 12.2715 2.77024ZM8.00149 3.89224C7.45656 3.88374 6.91538 3.98373 6.40947 4.18639C5.90355 4.38904 5.443 4.69032 5.05464 5.07267C4.66627 5.45502 4.35785 5.91081 4.14733 6.4135C3.93681 6.9162 3.82839 7.45575 3.82839 8.00074C3.82839 8.54574 3.93681 9.08529 4.14733 9.58798C4.35785 10.0907 4.66627 10.5465 5.05464 10.9288C5.443 11.3112 5.90355 11.6124 6.40947 11.8151C6.91538 12.0178 7.45656 12.1177 8.00149 12.1092C9.08003 12.0924 10.1087 11.6522 10.8655 10.8835C11.6222 10.1148 12.0464 9.07942 12.0464 8.00074C12.0464 6.92207 11.6222 5.88666 10.8655 5.11799C10.1087 4.34933 9.08003 3.90907 8.00149 3.89224ZM8.00149 5.33324C8.70882 5.33324 9.38718 5.61423 9.88734 6.11439C10.3875 6.61455 10.6685 7.29291 10.6685 8.00024C10.6685 8.70758 10.3875 9.38594 9.88734 9.8861C9.38718 10.3863 8.70882 10.6672 8.00149 10.6672C7.29416 10.6672 6.61579 10.3863 6.11563 9.8861C5.61547 9.38594 5.33449 8.70758 5.33449 8.00024C5.33449 7.29291 5.61547 6.61455 6.11563 6.11439C6.61579 5.61423 7.29416 5.33324 8.00149 5.33324Z" fill="white"/>
</svg>
