<svg width="17" height="15" viewBox="0 0 17 15" fill="none" xmlns="http://www.w3.org/2000/svg">
<path d="M8.50038 2.74805L7.78338 2.01105C6.10038 0.281049 3.01438 0.878049 1.90038 3.05305C1.37738 4.07605 1.25938 5.55305 2.21438 7.43805C3.13438 9.25305 5.04838 11.427 8.50038 13.795C11.9524 11.427 13.8654 9.25305 14.7864 7.43805C15.7414 5.55205 15.6244 4.07605 15.1004 3.05305C13.9864 0.878049 10.9004 0.280049 9.21738 2.01005L8.50038 2.74805ZM8.50038 15C-6.83262 4.86805 3.77938 -3.03995 8.32438 1.14305C8.38438 1.19805 8.44338 1.25505 8.50038 1.31405C8.5568 1.2551 8.61552 1.19839 8.67638 1.14405C13.2204 -3.04195 23.8334 4.86705 8.50038 15Z" fill="#23A6F0"/>
</svg>
