<svg width="16" height="12" viewBox="0 0 16 12" fill="none" xmlns="http://www.w3.org/2000/svg">
<path d="M-0.499512 2C-0.499512 1.46957 -0.288798 0.960859 0.0862747 0.585786C0.461347 0.210714 0.970055 0 1.50049 0H13.5005C14.0309 0 14.5396 0.210714 14.9147 0.585786C15.2898 0.960859 15.5005 1.46957 15.5005 2V10C15.5005 10.5304 15.2898 11.0391 14.9147 11.4142C14.5396 11.7893 14.0309 12 13.5005 12H1.50049C0.970055 12 0.461347 11.7893 0.0862747 11.4142C-0.288798 11.0391 -0.499512 10.5304 -0.499512 10V2ZM1.50049 1C1.23527 1 0.980918 1.10536 0.793381 1.29289C0.605845 1.48043 0.500488 1.73478 0.500488 2V2.217L7.50049 6.417L14.5005 2.217V2C14.5005 1.73478 14.3951 1.48043 14.2076 1.29289C14.0201 1.10536 13.7657 1 13.5005 1H1.50049ZM14.5005 3.383L9.74249 6.238L14.5005 9.114V3.384V3.383ZM14.4665 10.261L8.77149 6.82L7.50049 7.583L6.22849 6.82L0.534488 10.26C0.591686 10.4724 0.717337 10.6601 0.891976 10.7938C1.06662 10.9276 1.2805 11.0001 1.50049 11H13.5005C13.7203 11.0001 13.9341 10.9278 14.1088 10.7942C14.2834 10.6607 14.4091 10.4732 14.4665 10.261ZM0.500488 9.114L5.25849 6.238L0.500488 3.383V9.113V9.114Z" fill="white"/>
</svg>
