<svg width="16" height="13" viewBox="0 0 16 13" fill="none" xmlns="http://www.w3.org/2000/svg">
<path d="M5.02649 13.0009C11.0645 13.0009 14.3675 7.99794 14.3675 3.66694C14.3675 3.52694 14.3675 3.38494 14.3615 3.24494C15.0045 2.77942 15.5595 2.20309 16.0005 1.54294C15.3998 1.80779 14.7632 1.98234 14.1115 2.06094C14.798 1.65057 15.3122 1.00491 15.5585 0.243937C14.9135 0.626061 14.2075 0.894311 13.4715 1.03694C12.9767 0.509961 12.3219 0.160855 11.6086 0.0436948C10.8953 -0.0734655 10.1632 0.0478587 9.52583 0.388875C8.88844 0.72989 8.3813 1.27157 8.08294 1.93C7.78458 2.58843 7.71167 3.32687 7.87549 4.03094C6.57023 3.96549 5.2933 3.62641 4.12753 3.03568C2.96176 2.44495 1.93317 1.61578 1.10849 0.601937C0.689828 1.32502 0.562062 2.18034 0.751134 2.9942C0.940207 3.80807 1.43194 4.51947 2.12649 4.98394C1.60603 4.96625 1.09701 4.8265 0.640488 4.57594V4.62094C0.641386 5.37842 0.903795 6.11236 1.38336 6.6987C1.86293 7.28504 2.53024 7.68781 3.27249 7.83894C2.99075 7.91655 2.69972 7.95524 2.40749 7.95394C2.20147 7.95456 1.99587 7.93547 1.79349 7.89694C2.00327 8.54899 2.41176 9.1191 2.96174 9.52741C3.51171 9.93573 4.17562 10.1618 4.86049 10.1739C3.69704 11.0877 2.25989 11.5833 0.780488 11.5809C0.519809 11.582 0.259311 11.567 0.000488281 11.5359C1.502 12.4932 3.24579 13.0015 5.02649 13.0009Z" fill="white"/>
</svg>
