<svg width="16" height="12" viewBox="0 0 16 12" fill="none" xmlns="http://www.w3.org/2000/svg">
<path d="M8.05149 -0.000732422H8.14049C8.96249 0.00226758 13.1275 0.0322677 14.2505 0.334268C14.59 0.426436 14.8993 0.60609 15.1476 0.855276C15.396 1.10446 15.5745 1.41445 15.6655 1.75427C15.7665 2.13427 15.8375 2.63727 15.8855 3.15627L15.8955 3.26027L15.9175 3.52027L15.9255 3.62427C15.9905 4.53827 15.9985 5.39427 15.9995 5.58127V5.65627C15.9985 5.85027 15.9895 6.76427 15.9175 7.71627L15.9095 7.82127L15.9005 7.92527C15.8505 8.49727 15.7765 9.06527 15.6655 9.48327C15.5748 9.82322 15.3963 10.1334 15.148 10.3826C14.8996 10.6318 14.5901 10.8114 14.2505 10.9033C13.0905 11.2153 8.68149 11.2373 8.07049 11.2383H7.92849C7.61949 11.2383 6.34149 11.2323 5.00149 11.1863L4.83149 11.1803L4.74449 11.1763L4.57349 11.1693L4.40249 11.1623C3.29249 11.1133 2.23549 11.0343 1.74849 10.9023C1.40898 10.8105 1.09955 10.6311 0.851213 10.382C0.602872 10.133 0.424335 9.82304 0.333488 9.48327C0.222488 9.06627 0.148488 8.49727 0.0984883 7.92527L0.0904883 7.82027L0.0824883 7.71627C0.0331359 7.03867 0.00578815 6.35964 0.000488281 5.68027L0.000488281 5.55727C0.00248828 5.34227 0.0104883 4.59927 0.0644883 3.77927L0.0714883 3.67627L0.0744883 3.62427L0.0824883 3.52027L0.104488 3.26027L0.114488 3.15627C0.162488 2.63727 0.233488 2.13327 0.334488 1.75427C0.425182 1.41432 0.603651 1.10418 0.852001 0.85495C1.10035 0.605721 1.40986 0.42616 1.74949 0.334268C2.23649 0.204268 3.29349 0.124268 4.40349 0.0742675L4.57349 0.0672675L4.74549 0.0612677L4.83149 0.0582677L5.00249 0.0512677C5.9542 0.0206423 6.90629 0.00364044 7.85849 0.000267625H8.05149V-0.000732422ZM6.40049 3.20927V8.02727L10.5575 5.61927L6.40049 3.20927Z" fill="white"/>
</svg>
