<svg width="102" height="75" viewBox="0 0 102 75" fill="none" xmlns="http://www.w3.org/2000/svg">
<path d="M102 0.145813C89.1225 8.82832 87.7519 15.1296 86.6362 17.0573C85.5684 19.0335 84.7716 26.8251 82.9228 30.5994C81.0581 34.4223 74.2847 37.4352 72.3881 38.6987C70.5234 39.9622 67.8778 44.8704 65.7103 49.0983C48.4819 48.3856 39.0309 55.3834 24.4003 64.2603C29.0859 62.689 31.3012 61.5551 31.3012 61.5551C46.3144 55.7236 53.5022 50.4914 76.1016 53.5853C76.2769 53.5853 76.4044 53.6825 76.5478 53.7149C77.1694 54.0713 77.3925 54.8326 77.0419 55.4644L68.4516 70.9827C68.0531 71.7441 67.2084 72.149 66.3637 71.9709C46.155 68.1156 30.2016 74.7732 15.5391 74.9838C3.84094 75.162 0 69.5573 0 69.2981C0 69.1199 0.095625 69.0227 0.270938 69.0227C0.270938 69.0227 6.375 69.0227 16.7025 66.5443C28.4325 43.8175 38.8875 35.864 50.2669 35.864C50.2669 35.864 61.6941 35.864 64.7062 45.8909C68.34 39.4601 69.2166 37.9212 69.2166 37.9212C70.0612 36.3985 74.7947 25.4158 82.9866 15.0162C91.1944 4.64905 97.3941 2.07346 102 0.145813Z" fill="#737373"/>
</svg>
