<svg width="105" height="63" viewBox="0 0 105 63" fill="none" xmlns="http://www.w3.org/2000/svg">
<path d="M29.8872 22.9886C29.7706 26.6267 31.6044 28.2378 31.6497 29.2609C31.6281 29.4692 31.5566 29.6693 31.441 29.8445C31.3255 30.0197 31.1693 30.1649 30.9856 30.268L28.912 31.7072C28.6437 31.8937 28.3274 32.0007 28 32.0156C27.9304 32.0124 26.6733 32.3095 24.6824 27.9021C23.4677 29.4054 21.9223 30.6133 20.1643 31.4332C18.4063 32.2531 16.4824 32.6633 14.54 32.6324C11.9027 32.7753 4.75553 31.1482 5.12326 23.6038C4.86569 17.4552 10.6408 13.6356 16.6135 13.9585C17.7636 13.9617 20.1125 14.0179 24.2256 14.9656V12.4567C24.6613 8.20662 21.8443 4.90905 16.9666 5.40377C16.5778 5.40537 13.8239 5.32346 9.54083 7.02765C8.34855 7.57055 8.19628 7.48061 7.79939 7.48061C6.59902 7.48061 7.0931 4.03045 7.32313 3.59356C8.16712 2.56558 13.1322 0.64615 18.005 0.673455C21.2631 0.387753 24.5037 1.38477 27.0264 3.449C28.0519 4.58633 28.8343 5.91795 29.3262 7.36344C29.8182 8.80892 30.0096 10.3383 29.8889 11.8592L29.8872 22.9886ZM15.8877 28.1912C21.1412 28.1157 23.3654 24.9836 23.8724 23.297C24.2709 21.6828 24.2045 20.6612 24.2045 18.896C22.638 18.5234 20.3831 18.117 17.796 18.1138C15.3418 17.9307 10.8595 19.0181 11.0344 23.2954C10.8335 25.9923 12.8358 28.3389 15.8877 28.1912ZM43.5757 31.8935C42.3024 32.0092 41.7095 31.1129 41.5216 30.2279L33.4543 3.78149C33.2972 3.33496 33.1935 2.87397 33.1433 2.40335C33.1136 2.20933 33.1627 2.01152 33.28 1.8534C33.3972 1.69528 33.573 1.58979 33.7686 1.56009C33.8075 1.55366 33.4236 1.56009 37.373 1.56009C38.7953 1.41874 39.2586 2.52864 39.406 3.22574L45.1924 25.8461L50.5641 3.22574C50.65 2.70853 51.0404 1.44765 52.6376 1.58097H55.4175C55.769 1.55206 57.2172 1.50066 57.4715 3.24662L62.8854 26.1561L68.8581 3.24662C68.9358 2.89646 69.2987 1.42035 70.9122 1.58097H74.1067C74.2444 1.56009 75.1029 1.45086 74.9571 2.9591C74.8875 3.25625 75.5095 1.24688 66.412 30.2487C66.2257 31.1338 65.6312 32.03 64.3579 31.9144H61.3302C59.558 32.0991 59.3037 30.3628 59.2761 30.1877L53.9044 8.16164L48.5943 30.1652C48.5684 30.3403 48.314 32.0766 46.5402 31.8919H43.5757V31.8935ZM87.8778 32.7978C86.9252 32.7994 82.3829 32.7496 78.5858 30.8238C78.2076 30.665 77.8854 30.3984 77.6602 30.0578C77.4349 29.7172 77.3167 29.318 77.3206 28.9108V27.1841C77.3206 25.8268 78.325 26.0758 78.751 26.238C80.3775 26.8901 81.4207 27.3849 83.4181 27.78C89.3551 28.9895 91.9665 27.4106 92.6064 27.0604C94.7366 25.8059 94.9051 22.9356 93.4568 21.4467C91.7591 20.0348 90.9492 19.9818 84.8501 18.0736C84.0985 17.8664 77.771 15.8875 77.7564 9.66346C77.6576 5.1275 81.8143 0.639724 89.0182 0.676667C91.0707 0.675061 96.5396 1.34004 98.0202 3.18558C98.2389 3.52128 98.3474 3.91641 98.3312 4.31636V5.94024C98.3312 6.6534 98.0688 7.00998 97.5423 7.00998C96.2933 6.87185 94.0773 5.21584 89.5787 5.2833C88.4626 5.22548 83.1168 5.42947 83.3565 9.29403C83.2869 12.3394 87.6672 13.4814 88.1677 13.6131C94.074 15.3752 96.0487 15.6675 98.3928 18.3643C101.169 21.9382 99.6725 26.1224 99.0975 27.2692C96.0066 33.2909 88.0138 32.801 87.8778 32.7978ZM94.3899 49.6406C83.0455 57.948 66.5772 62.3699 52.5162 62.3699C33.5435 62.4939 15.2103 55.5767 1.12039 42.978C0.0625718 42.032 0.995656 40.7357 2.28189 41.4569C17.9118 50.3219 35.6081 54.9798 53.6145 54.9684C67.0611 54.8969 80.3611 52.1922 92.7505 47.0096C94.6588 46.2065 96.2771 48.2625 94.3899 49.6406ZM99.1185 44.2935C97.6671 42.4431 89.5155 43.4294 85.8658 43.8614C84.7659 43.9851 84.5796 43.0391 85.5758 42.3403C92.0669 37.8156 102.728 39.1118 103.952 40.6329C105.175 42.154 103.62 52.7454 97.5439 57.805C96.6108 58.5872 95.7183 58.1744 96.133 57.1465C97.5002 53.7333 100.57 46.1455 99.1185 44.2935Z" fill="#737373"/>
</svg>
